<svg width="400" height="200" viewBox="0 0 400 200" xmlns="http://www.w3.org/2000/svg" preserveAspectRatio="xMinYMin meet">
  <g fill="none" fill-rule="evenodd">
    <path fill="#FF9900" d="M89.5 99.1C85 104.1 74.8 112.2 62 116.3c-5.9 1.9-12.1 3-18.3 3.2-7.6-.1-15.1-1.5-22-4.1-6.9-2.6-12.9-6.4-18.3-10.6-4.6-3.6-8.7-7.7-11.7-12.6-2.3-3.8-4.5-8.4-6-13.5-1.4-5.1-1.7-10.4-.7-15.7 1-5.3 2.9-10.2 5.4-14.7 4.9-8.7 12.5-15.4 21.1-19.9 9.2-5.1 20-7.6 30.8-7.6 11.4 0 22.6 2.4 32.5 7.2 7.2 3.5 14.4 8.4 18.3 15.2l-18.6 10.7c-1.3-2.4-4.5-4.9-7.7-6.9-6.1-3.7-13.6-5.8-20.6-5.8-4.9 0-9.8 1-14.2 3.1-3.5 1.6-6.9 4.1-9.4 7.2-2.6 3.2-4.7 7.2-5.4 11.4-.8 4.4-.6 9 .6 13.3 1.2 4.3 3.3 8.3 6.4 11.5 5.1 5.3 12.7 8.9 20.6 8.8 3.3 0 6.7-.3 9.8-1.1 5.2-1.3 10.5-3.9 13.9-8.2l15.4 11.3zm9.4-48.6h22.6l14.8 47.8 14.8-47.8h22.3l-23.5 66.1h-26.5l-23.5-66.1zm119 66.1h-21.8v-66.1h21.8v27.7c1.8-1.7 3.9-3.2 6.2-4.5 3.8-2.1 8.1-3.2 12.5-3.1 4.4 0 8.7 1.1 12.5 3.1 3.8 2 7 5 9.2 8.7 2.3 3.7 3.6 7.9 3.7 12.1.2 4.4-.7 8.9-2.8 13-2.1 3.9-5.4 7.1-9.2 9.2-3.8 2.1-8.1 3.1-12.5 3.1-4.4 0-8.7-1.1-12.5-3.1-2.3-1.2-4.4-2.7-6.2-4.5v25.3zm21.8-38.6c0-3-1.1-5.8-3.3-8-2.2-2.2-4.9-3.3-8-3.3s-5.8 1.1-8 3.3c-2.2 2.2-3.3 5-3.3 8v12.1c0 3 .1 5.8 3.3 8 2.2 2.2 4.9 3.3 8 3.3 3 0 5.8-1.1 8-3.3 2.2-2.2 3.3-5 3.3-8v-12.1zm59.2 38.6h-22.6l-28.2-66.1h23.8l12.1 32.1 12.1-32.1h23.8l-28.2 66.1z"/>
  </g>
</svg>
