<svg viewBox="0 0 200 187" xmlns="http://www.w3.org/2000/svg" xmlns:xlink="http://www.w3.org/1999/xlink">
    <mask id="mask0" mask-type="alpha">
        <path d="M168.313 42.4879C178.582 72.1187 163.309 102.826 142.328 124.186C121.346 145.547 
        90.807 167.559 70.226 156.353C49.6454 145.297 31.0228 121.023 21.7403 89.362C12.4578 
        57.8511 2.51519 38.1033 15.6758 24.5279C28.9871 10.1032 59.7028 5.85087 97.9666 
        10.0016C136.23 14.3032 158.193 12.857 168.313 42.4879Z"/>
    </mask>
    <g mask="url(#mask0)">
        <path d="M168.313 42.4879C178.582 72.1187 163.309 102.826 142.328 124.186C121.346 
        145.547 90.807 167.559 70.226 156.353C49.6454 145.297 31.0228 121.023 21.7403 
        89.362C12.4578 57.8511 2.51519 38.1033 15.6758 24.5279C28.9871 10.1032 59.7028 
        5.85087 97.9666 10.0016C136.23 14.3032 158.193 12.857 168.313 42.4879Z"/>
        <image xlink:href=""/>
    </g>
</svg>

